HIERARCHY
ROOT Hips
{
	OFFSET 0.000000 0.000000 0.000000
	CHANNELS 6 Xposition Yposition Zposition Zrotation Yrotation Xrotation 
	JOINT LHipJoint
	{
		OFFSET 0.000000 0.000000 0.000000
		CHANNELS 3 Zrotation Yrotation Xrotation
		JOINT LeftUpLeg
		{
			OFFSET 1.363060 -1.794630 0.839290
			CHANNELS 3 Zrotation Yrotation Xrotation
			JOINT LeftLeg
			{
				OFFSET 2.448110 -6.726130 0.000000
				CHANNELS 3 Zrotation Yrotation Xrotation
				JOINT LeftFoot
				{
					OFFSET 2.562200 -7.039590 0.000000
					CHANNELS 3 Zrotation Yrotation Xrotation
					JOINT LeftToeBase
					{
						OFFSET 0.157640 -0.433110 2.322550
						CHANNELS 3 Zrotation Yrotation Xrotation
						End Site
						{
							OFFSET 0.000000 0.000000 0.000000
						}
					}
				}
			}
		}
	}
	JOINT RHipJoint
	{
		OFFSET 0.000000 0.000000 0.000000
		CHANNELS 3 Zrotation Yrotation Xrotation
		JOINT RightUpLeg
		{
			OFFSET -1.305520 -1.794630 0.839290
			CHANNELS 3 Zrotation Yrotation Xrotation
			JOINT RightLeg
			{
				OFFSET -2.542530 -6.985550 0.000000
				CHANNELS 3 Zrotation Yrotation Xrotation
				JOINT RightFoot
				{
					OFFSET -2.568260 -7.056230 0.000000
					CHANNELS 3 Zrotation Yrotation Xrotation
					JOINT RightToeBase
					{
						OFFSET -0.164730 -0.452590 2.363150
						CHANNELS 3 Zrotation Yrotation Xrotation
						End Site
						{
							OFFSET 0.000000 0.000000 0.000000
						}
					}
				}
			}
		}
	}
	JOINT LowerBack
	{
		OFFSET 0.000000 0.000000 0.000000
		CHANNELS 3 Zrotation Yrotation Xrotation
		JOINT Spine
		{
			OFFSET 0.028270 2.035590 -0.193380
			CHANNELS 3 Zrotation Yrotation Xrotation
			JOINT Spine1
			{
				OFFSET 0.056720 2.048850 -0.042750
				CHANNELS 3 Zrotation Yrotation Xrotation
				JOINT Neck
				{
					OFFSET 0.000000 0.000000 0.000000
					CHANNELS 3 Zrotation Yrotation Xrotation
					JOINT Neck1
					{
						OFFSET -0.054170 1.746240 0.172020
						CHANNELS 3 Zrotation Yrotation Xrotation
						JOINT Head
						{
							OFFSET 0.104070 1.761360 -0.123970
							CHANNELS 3 Zrotation Yrotation Xrotation
							End Site
							{
								OFFSET 0.000000 0.000000 0.000000
							}
						}
					}
				}
				JOINT LeftShoulder
				{
					OFFSET 0.000000 0.000000 0.000000
					CHANNELS 3 Zrotation Yrotation Xrotation
					JOINT LeftArm
					{
						OFFSET 3.362410 1.200890 -0.311210
						CHANNELS 3 Zrotation Yrotation Xrotation
						JOINT LeftForeArm
						{
							OFFSET 4.983000 -0.000000 -0.000000
							CHANNELS 3 Zrotation Yrotation Xrotation
							JOINT LeftHand
							{
								OFFSET 3.483560 -0.000000 -0.000000
								CHANNELS 3 Zrotation Yrotation Xrotation
								JOINT LeftFingerBase
								{
									OFFSET 0.000000 0.000000 0.000000
									CHANNELS 3 Zrotation Yrotation Xrotation
									JOINT LeftHandIndex1
									{
										OFFSET 0.715260 -0.000000 -0.000000
										CHANNELS 3 Zrotation Yrotation Xrotation
										End Site
										{
											OFFSET 0.000000 0.000000 0.000000
										}
									}
								}
								JOINT LThumb
								{
									OFFSET 0.000000 0.000000 0.000000
									CHANNELS 3 Zrotation Yrotation Xrotation
									End Site
									{
										OFFSET 0.000000 0.000000 0.000000
									}
								}
							}
						}
					}
				}
				JOINT RightShoulder
				{
					OFFSET 0.000000 0.000000 0.000000
					CHANNELS 3 Zrotation Yrotation Xrotation
					JOINT RightArm
					{
						OFFSET -3.136600 1.374050 -0.404650
						CHANNELS 3 Zrotation Yrotation Xrotation
						JOINT RightForeArm
						{
							OFFSET -5.241900 -0.000000 -0.000000
							CHANNELS 3 Zrotation Yrotation Xrotation
							JOINT RightHand
							{
								OFFSET -3.444170 -0.000000 -0.000000
								CHANNELS 3 Zrotation Yrotation Xrotation
								JOINT RightFingerBase
								{
									OFFSET 0.000000 0.000000 0.000000
									CHANNELS 3 Zrotation Yrotation Xrotation
									JOINT RightHandIndex1
									{
										OFFSET -0.622530 -0.000000 -0.000000
										CHANNELS 3 Zrotation Yrotation Xrotation
										End Site
										{
											OFFSET 0.000000 0.000000 0.000000
										}
									}
								}
								JOINT RThumb
								{
									OFFSET 0.000000 0.000000 0.000000
									CHANNELS 3 Zrotation Yrotation Xrotation
									End Site
									{
										OFFSET 0.000000 0.000000 0.000000
									}
								}
							}
						}
					}
				}
			}
		}
	}
}
MOTION
Frames: 6
Frame Time: 0.008333
1.138322 16.632328 1.389311 38.755036 -88.979109 -34.845125 -9.213740 2.999142 2.694697 -14.990517 7.097909 -28.398262 -2.423883 1.327880 36.011915 1.690007 6.264286 -18.169074 -1.531000 0.000000 -20.635900 11.397280 -0.966629 -1.624596 7.885048 -23.884089 -37.035350 0.449608 -4.081167 60.596862 0.042493 3.453441 -7.203132 -0.001901 -0.000000 -81.345500 -3.980800 -3.461808 -3.828429 -1.375177 -3.342473 -2.897084 -6.400393 -3.351571 3.309426 13.200763 -19.450103 -13.508410 -2.280464 -0.103303 -1.531393 0.000000 0.000000 0.000000 -4.533228 24.336057 1.012716 -67.783971 11.593229 10.723202 -3.841068 -27.786527 -0.024622 -6.131060 10.679667 -0.569303 -0.090594 -0.074536 -0.000000 0.000000 0.000000 0.000000 0.000000 0.000000 0.000000 18.848852 -15.111467 -0.214753 69.993885 -0.941445 -4.656573 3.687168 30.233896 0.011749 4.280496 2.898093 0.109397 0.093812 -0.075331 -0.000000 0.000000 0.000000 0.000000 0.000000 0.000000 0.000000 
1.032879 16.576559 1.384601 35.094976 -88.606880 -31.165027 -9.246310 3.065008 2.787703 -15.096654 6.732906 -28.789143 -2.393761 1.454494 37.575476 1.747989 6.368246 -19.091062 -1.683300 -0.000000 -20.991400 11.357804 -0.912050 -1.560862 7.993739 -23.976999 -37.645270 0.450470 -4.077452 60.748623 0.124395 4.102542 -7.054007 0.003200 0.000000 -81.838800 -4.111978 -3.604115 -4.025302 -1.413144 -3.484421 -2.937714 -6.512957 -3.494917 3.275281 13.422533 -19.312476 -13.598077 -2.421529 -0.114840 -1.557859 0.000000 0.000000 0.000000 -4.536057 23.814899 1.029688 -67.164368 10.465510 10.646592 -3.890044 -27.336740 -0.024968 -6.377454 10.850612 -0.601486 -0.093157 -0.068313 -0.000000 0.000000 0.000000 0.000000 0.000000 0.000000 0.000000 19.611048 -15.007479 -0.191121 70.054010 -0.907927 -5.846709 3.693447 29.116161 0.011571 3.761127 3.100931 0.102398 0.095660 -0.076400 -0.000000 0.000000 0.000000 0.000000 0.000000 0.000000 0.000000 
0.930182 16.514192 1.379512 31.915790 -88.218380 -28.028242 -9.285388 3.117476 2.855334 -15.169224 6.394691 -29.158684 -2.354254 1.589196 39.260073 1.805652 6.473642 -20.058139 -1.846200 0.000000 -21.414500 11.333849 -0.869723 -1.505434 8.005331 -23.993420 -38.037383 0.427375 -4.075999 61.036519 0.169501 4.471567 -7.011685 0.004000 -0.000000 -82.091200 -4.240706 -3.735058 -4.181564 -1.448650 -3.613133 -2.971938 -6.604825 -3.625612 3.237565 13.582762 -19.103936 -13.672471 -2.550690 -0.125287 -1.581640 0.000000 0.000000 0.000000 -4.393516 23.249276 1.069116 -66.634001 9.263334 10.368198 -3.949034 -26.777739 -0.025308 -6.547680 11.061911 -0.629063 -0.096761 -0.060831 -0.000000 0.000000 0.000000 0.000000 0.000000 0.000000 0.000000 20.235000 -14.841003 -0.157110 70.137655 -0.771641 -7.079451 3.702468 27.808541 0.011354 3.348349 3.270545 0.095790 0.096293 -0.076897 -0.000000 0.000000 0.000000 0.000000 0.000000 0.000000 0.000000 
0.829865 16.446186 1.374271 28.857230 -87.815542 -25.066024 -9.337700 3.158604 2.901905 -15.196526 6.092919 -29.510243 -2.307063 1.730348 41.035323 1.859399 6.564298 -21.052941 -2.013300 -0.000000 -21.917400 11.317445 -0.843036 -1.456514 7.946044 -23.931142 -38.209896 0.384976 -4.072581 61.437452 0.179400 4.565223 -7.108608 -0.003300 -0.000000 -82.133700 -4.359311 -3.851891 -4.304933 -1.479579 -3.726475 -3.001693 -6.672111 -3.741838 3.194832 13.673213 -18.825048 -13.727205 -2.662938 -0.134189 -1.601378 0.000000 0.000000 0.000000 -4.095313 22.643317 1.131099 -66.183031 7.996427 9.925876 -4.014348 -26.166562 -0.025619 -6.634420 11.308372 -0.650734 -0.101182 -0.052081 -0.000000 0.000000 0.000000 0.000000 0.000000 0.000000 0.000000 20.691639 -14.613693 -0.110774 70.249526 -0.541163 -8.374515 3.715747 26.335003 0.011072 3.093363 3.357987 0.090572 0.095508 -0.076765 -0.000000 0.000000 0.000000 0.000000 0.000000 0.000000 0.000000 
0.731419 16.373903 1.368964 25.765203 -87.396326 -22.114238 -9.405806 3.190155 2.932786 -15.170216 5.832220 -29.839962 -2.254217 1.874240 42.855559 1.906378 6.627758 -22.054328 -2.177500 0.000000 -22.511200 11.302799 -0.836596 -1.411756 7.846098 -23.794226 -38.166690 0.330586 -4.064112 61.913314 0.156485 4.400243 -7.375503 -0.019800 0.000000 -81.973300 -4.461454 -3.953800 -4.404988 -1.504237 -3.824174 -3.028661 -6.711840 -3.843454 3.147156 13.692858 -18.496397 -13.762656 -2.752468 -0.140976 -1.616924 0.000000 0.000000 0.000000 -3.643459 22.004222 1.213210 -65.786766 6.678264 9.384388 -4.080770 -25.574927 -0.025887 -6.639250 11.577310 -0.665698 -0.106096 -0.042260 -0.000000 0.000000 0.000000 0.000000 0.000000 0.000000 0.000000 20.963631 -14.348282 -0.050857 70.378743 -0.209355 -9.713835 3.734895 24.725295 0.010725 3.028625 3.328812 0.087948 0.093356 -0.076047 -0.000000 0.000000 0.000000 0.000000 0.000000 0.000000 0.000000 
0.634169 16.299210 1.363608 22.606917 -86.958553 -19.128327 -9.488838 3.214248 2.954944 -15.084881 5.613060 -30.141213 -2.198467 2.015845 44.664318 1.944775 6.654449 -23.042994 -2.331900 0.000000 -23.188600 11.285476 -0.854987 -1.367321 7.739996 -23.589627 -37.919013 0.273051 -4.047864 62.413790 0.103126 4.000072 -7.839297 -0.042500 0.000000 -81.615600 -4.540776 -4.041181 -4.495051 -1.521425 -3.907288 -3.055654 -6.723709 -3.931554 3.092266 13.644854 -18.136269 -13.778151 -2.815657 -0.145342 -1.627759 0.000000 0.000000 0.000000 -3.049722 21.330343 1.311916 -65.408166 5.342240 8.825083 -4.141751 -25.090959 -0.026112 -6.574306 11.849702 -0.673457 -0.111131 -0.031793 -0.000000 0.000000 0.000000 0.000000 0.000000 0.000000 0.000000 21.044823 -14.062456 0.023335 70.505496 0.214899 -11.079584 3.761027 23.036150 0.010328 3.172835 3.157305 0.087618 0.090037 -0.074860 -0.000000 0.000000 0.000000 0.000000 0.000000 0.000000 0.000000 
